PathFileType	4	(X/Y/Z)	/Users/itak/Documents/Research/Walk-IL/dataset/trc/00124_00007.trc
DataRate	CameraRate	NumFrames	NumMarkers	Units	OrigDataRate	OrigDataStartFrame	OrigNumFrames
100.000000	100.000000	4	53	mm	100.000000	647	740
Frame#	Time	RPSI			LPSI			L3			STRN			T10			C7			CLAV			RBAK			LBAK			LSHO			LUPA			LAEL			LAOL			LWTS			LWPS			LFRA			LIFD			LHPS			LHTS			RSHO			RUPA			RAEL			RAOL			RWTS			RWPS			RFRA			RIFD			RHTS			RHPS			RBHD			LFHD			RFHD			LBHD			LHIP			RHIP			RASI			LASI			LKNE			LTHI			LANK			LTIP			LTOE			LMT1			LMT5			LHEE			RKNE			RTHI			RANK			RTIP			RTOE			RMT1			RMT5			RHEE			
		X1	Y1	Z1	X2	Y2	Z2	X3	Y3	Z3	X4	Y4	Z4	X5	Y5	Z5	X6	Y6	Z6	X7	Y7	Z7	X8	Y8	Z8	X9	Y9	Z9	X10	Y10	Z10	X11	Y11	Z11	X12	Y12	Z12	X13	Y13	Z13	X14	Y14	Z14	X15	Y15	Z15	X16	Y16	Z16	X17	Y17	Z17	X18	Y18	Z18	X19	Y19	Z19	X20	Y20	Z20	X21	Y21	Z21	X22	Y22	Z22	X23	Y23	Z23	X24	Y24	Z24	X25	Y25	Z25	X26	Y26	Z26	X27	Y27	Z27	X28	Y28	Z28	X29	Y29	Z29	X30	Y30	Z30	X31	Y31	Z31	X32	Y32	Z32	X33	Y33	Z33	X34	Y34	Z34	X35	Y35	Z35	X36	Y36	Z36	X37	Y37	Z37	X38	Y38	Z38	X39	Y39	Z39	X40	Y40	Z40	X41	Y41	Z41	X42	Y42	Z42	X43	Y43	Z43	X44	Y44	Z44	X45	Y45	Z45	X46	Y46	Z46	X47	Y47	Z47	X48	Y48	Z48	X49	Y49	Z49	X50	Y50	Z50	X51	Y51	Z51	X52	Y52	Z52	X53	Y53	Z53	

648	6.47	-312.6246337890625	1125.767944335938	1058.016723632812	-265.2394714355469	1124.132934570312	930.977294921875	-296.2162475585938	1157.17431640625	990.0101318359375	-103.5173797607422	1370.382080078125	1062.59423828125	-337.4287414550781	1304.701782226562	981.5350952148438	-321.9890441894531	1598.925415039062	967.955322265625	-144.8685150146484	1501.755859375	1039.619262695312	-390.6549377441406	1414.549072265625	1041.688110351562	-293.4312438964844	1576.091430664062	870.143310546875	-188.4327239990234	1565.001831054688	834.1272583007812	-182.24560546875	1431.325561523438	765.1934814453125	-160.7854919433594	1212.656372070312	754.1151123046875	-241.3267059326172	1200.14599609375	788.0253295898438	-72.13484954833984	960.9696044921875	837.3754272460938	-139.4468078613281	930.638427734375	787.0020751953125	-140.6209411621094	1097.141479492188	759.695068359375	-63.45448684692383	769.4998168945312	872.1925048828125	-110.2376480102539	856.6890869140625	800.1885375976562	-52.22795867919922	871.3197021484375	836.6077880859375	-325.4731750488281	1588.872802734375	1158.65234375	-356.0024108886719	1516.23876953125	1217.55615234375	-336.5175476074219	1222.656372070312	1259.898315429688	-315.7679138183594	1215.00439453125	1165.523681640625	-149.2698516845703	1015.711242675781	1309.056762695312	-224.3775939941406	984.2398681640625	1320.323608398438	-304.8492431640625	1155.514892578125	1287.737060546875	-79.75334167480469	833.330078125	1315.234252929688	-100.1358871459961	917.8165893554688	1333.807983398438	-169.4497680664062	896.5540161132812	1344.349487304688	-270.2193298339844	1794.044921875	1062.989013671875	-91.21207427978516	1816.076416015625	936.365234375	-96.89085388183594	1832.165283203125	1065.237915039062	-271.2141723632812	1782.653930664062	928.6666870117188	-134.44189453125	1038.97216796875	866.3955078125	-234.0635223388672	1037.396240234375	1218.224243164062	-142.4134216308594	1113.482421875	1195.156616210938	-54.38637161254883	1110.922729492188	944.5274658203125	-57.8775634765625	538.16943359375	938.3258056640625	-90.47077178955078	683.4964599609375	897.5142822265625	-232.2288665771484	49.27852249145508	875.46533203125	-172.4037933349609	299.0254516601562	865.8388061523438	-47.3128662109375	39.57206726074219	1023.455322265625	-135.9002075195312	44.99383926391602	1020.516052246094	-110.2361602783203	43.36641311645508	907.7868041992188	-321.1586303710938	54.78910446166992	901.7840576171875	-233.35693359375	543.68505859375	1165.341186523438	-213.6960601806641	823.4569091796875	1209.330810546875	-326.8017883300781	34.84077072143555	1087.699096679688	-261.0043334960938	409.6858520507812	1160.219360351562	-85.20082855224609	42.36137771606445	1108.487182617188	-131.8024597167969	44.39994812011719	1052.774291992188	-207.6939849853516	42.08333206176758	1154.106201171875	-364.3307495117188	39.74424362182617	1024.903686523438	
649	6.48	-311.2188415527344	1125.824096679688	1058.791625976562	-263.9525756835938	1124.287475585938	931.7499389648438	-294.7626037597656	1157.108154296875	990.753173828125	-102.1694641113281	1370.327514648438	1063.054565429688	-336.2481689453125	1304.58154296875	981.7147216796875	-320.9056701660156	1598.800903320312	968.3977661132812	-143.6903533935547	1501.70556640625	1040.199096679688	-389.4480285644531	1414.243408203125	1041.853271484375	-292.2144775390625	1576.10791015625	870.5989990234375	-187.1319580078125	1565.193115234375	834.6845092773438	-180.6690368652344	1431.594848632812	765.605712890625	-158.7967224121094	1212.915649414062	754.4854125976562	-239.3942260742188	1200.298583984375	788.2359619140625	-70.21973419189453	961.1224365234375	837.6238403320312	-137.4110870361328	930.90185546875	787.0579223632812	-138.567138671875	1097.431518554688	759.9998168945312	-61.66021728515625	769.6029052734375	872.1854858398438	-108.2596588134766	856.9146118164062	800.2124633789062	-50.33665466308594	871.4876098632812	836.7748413085938	-324.5886535644531	1588.4423828125	1159.098510742188	-355.2362976074219	1515.6669921875	1217.795532226562	-336.2770690917969	1221.903930664062	1258.884765625	-315.0020751953125	1214.686157226562	1164.574951171875	-151.152587890625	1013.026794433594	1307.765991210938	-226.6532135009766	982.2724609375	1318.474365234375	-305.2703857421875	1154.48291015625	1286.504028320312	-83.53035736083984	829.901123046875	1313.287963867188	-103.1576843261719	914.4872436523438	1332.215209960938	-172.7646942138672	893.91943359375	1342.251953125	-269.6200256347656	1793.811645507812	1063.727905273438	-90.84203338623047	1816.496704101562	936.8906860351562	-96.38321685791016	1832.449951171875	1065.773681640625	-270.732666015625	1782.524291992188	929.3756713867188	-133.2674407958984	1039.096557617188	866.8304443359375	-232.384765625	1037.1650390625	1218.676391601562	-140.7630004882812	1113.291015625	1195.530639648438	-53.0068473815918	1110.841430664062	944.7448120117188	-59.97186660766602	537.9295654296875	936.8856811523438	-91.74071502685547	683.4515380859375	896.5748901367188	-232.3603515625	48.59902954101562	875.3681030273438	-173.4346923828125	298.4307556152344	865.034912109375	-47.20796585083008	39.43766403198242	1023.648376464844	-135.9953918457031	44.81949615478516	1020.539184570312	-110.2542953491211	43.24747467041016	907.711181640625	-321.3534240722656	53.68301773071289	901.6107177734375	-232.5049133300781	543.5296020507812	1165.382568359375	-212.4094390869141	823.26123046875	1209.592895507812	-326.8495178222656	34.77860641479492	1087.708129882812	-260.4281616210938	409.5932922363281	1160.233032226562	-85.26248168945312	42.42887878417969	1108.496337890625	-131.8428955078125	44.48089599609375	1052.804077148438	-207.7244110107422	42.08237075805664	1154.128662109375	-364.365478515625	39.69664001464844	1024.889038085938	
650	6.49	-309.8587951660156	1125.89453125	1059.496948242188	-262.7306518554688	1124.466552734375	932.452880859375	-293.3941345214844	1157.084594726562	991.4326171875	-100.8670043945312	1370.273681640625	1063.465698242188	-335.12548828125	1304.494018554688	981.8872680664062	-319.8411254882812	1598.711547851562	968.8275146484375	-142.5520782470703	1501.661865234375	1040.737060546875	-388.2790222167969	1413.988525390625	1042.027587890625	-291.0421142578125	1576.14892578125	871.041015625	-185.9022674560547	1565.384521484375	835.2240600585938	-179.1516571044922	1431.8681640625	765.9772338867188	-156.83642578125	1213.18701171875	754.7845458984375	-237.4983825683594	1200.448974609375	788.3573608398438	-68.26823425292969	961.3113403320312	837.7910766601562	-135.3339996337891	931.1749877929688	787.0299682617188	-136.5167388916016	1097.7294921875	760.2228393554688	-59.74145889282227	769.7461547851562	872.0753784179688	-106.201904296875	857.16259765625	800.143798828125	-48.379150390625	871.7013549804688	836.849609375	-323.6771240234375	1588.067626953125	1159.537719726562	-354.4513854980469	1515.170166015625	1218.030395507812	-336.1565856933594	1221.226928710938	1257.849487304688	-314.3880920410156	1214.421752929688	1163.591918945312	-153.2336578369141	1010.374694824219	1306.412231445312	-229.1361999511719	980.36669921875	1316.569580078125	-305.8467407226562	1153.512817382812	1285.2412109375	-87.57235717773438	826.5089111328125	1311.205200195312	-106.4117889404297	911.1822509765625	1330.516479492188	-176.3129577636719	891.3313598632812	1340.068359375	-269.0107727050781	1793.59130859375	1064.453002929688	-90.50382232666016	1816.948852539062	937.3656005859375	-95.88172149658203	1832.761108398438	1066.264526367188	-270.2655944824219	1782.40966796875	930.0608520507812	-132.1738891601562	1039.245727539062	867.1973876953125	-230.7413787841797	1036.948486328125	1219.0703125	-139.1588439941406	1113.117309570312	1195.848266601562	-51.67433547973633	1110.791015625	944.8944091796875	-62.20418930053711	537.7406616210938	935.3949584960938	-93.05524444580078	683.4584350585938	895.5847778320312	-232.4751586914062	47.91886520385742	875.2197875976562	-174.6001586914062	297.9019775390625	864.1622924804688	-47.16104125976562	39.37763214111328	1023.805969238281	-136.1053771972656	44.67299270629883	1020.524841308594	-110.2623291015625	43.13053131103516	907.6240844726562	-321.5367431640625	52.60157012939453	901.3941040039062	-231.6971893310547	543.4016723632812	1165.381591796875	-211.1416015625	823.089599609375	1209.7978515625	-326.8847351074219	34.73649215698242	1087.718994140625	-259.8933410644531	409.5455322265625	1160.208374023438	-85.31146240234375	42.48879241943359	1108.494384765625	-131.8793182373047	44.5497932434082	1052.83642578125	-207.7481536865234	42.08354949951172	1154.145629882812	-364.3946533203125	39.67791748046875	1024.887817382812	
651	6.5	-308.5353088378906	1125.988403320312	1060.126586914062	-261.5621948242188	1124.675170898438	933.0731811523438	-292.1004638671875	1157.110107421875	992.0458984375	-99.61135864257812	1370.231689453125	1063.832153320312	-334.0543518066406	1304.440551757812	982.0564575195312	-318.8005676269531	1598.660278320312	969.2503051757812	-141.4525299072266	1501.631713867188	1041.233642578125	-387.1501770019531	1413.78662109375	1042.212768554688	-289.9173278808594	1576.21533203125	871.4703369140625	-184.7444763183594	1565.5791015625	835.7448120117188	-177.7025451660156	1432.148681640625	766.3096313476562	-154.9134674072266	1213.474365234375	755.01904296875	-235.6411895751953	1200.599243164062	788.394287109375	-66.28621673583984	961.5458374023438	837.8869018554688	-133.2220611572266	931.4606323242188	786.9274291992188	-134.4763336181641	1098.038696289062	760.3714599609375	-57.69916534423828	769.9366455078125	871.8719482421875	-104.069709777832	857.4389038085938	799.990966796875	-46.35533142089844	871.9650268554688	836.842529296875	-322.742919921875	1587.750732421875	1159.971435546875	-353.6530456542969	1514.7470703125	1218.262573242188	-336.1433715820312	1220.636840820312	1256.807739257812	-313.9166870117188	1214.218627929688	1162.59326171875	-155.4865417480469	1007.768798828125	1305.000122070312	-231.80517578125	978.5349731445312	1314.622680664062	-306.55908203125	1152.615966796875	1283.960693359375	-91.86901092529297	823.1629028320312	1308.972778320312	-109.8743667602539	907.9127197265625	1328.706909179688	-180.0690765380859	888.79931640625	1337.806884765625	-268.3901977539062	1793.389770507812	1065.168701171875	-90.19522094726562	1817.430908203125	937.7880859375	-95.38149261474609	1833.09765625	1066.710327148438	-269.8223571777344	1782.31396484375	930.7330932617188	-131.1562042236328	1039.419555664062	867.5001831054688	-229.1403198242188	1036.755615234375	1219.40185546875	-137.5997314453125	1112.970703125	1196.110595703125	-50.39057159423828	1110.78369140625	944.9895629882812	-64.58345031738281	537.6043701171875	933.891357421875	-94.42855072021484	683.51416015625	894.5664672851562	-232.5909423828125	47.25936889648438	875.0547485351562	-175.8836059570312	297.4280090332031	863.2710571289062	-47.1511116027832	39.3568115234375	1023.9375	-136.2187042236328	44.53368759155273	1020.489318847656	-110.2735214233398	43.02400970458984	907.5413208007812	-321.7278137207031	51.55871963500977	901.1804809570312	-230.9523162841797	543.3053588867188	1165.32421875	-209.9022521972656	822.9436645507812	1209.939575195312	-326.9044494628906	34.71977996826172	1087.725952148438	-259.4080810546875	409.5471801757812	1160.12939453125	-85.34763336181641	42.54316329956055	1108.490966796875	-131.9108581542969	44.59914016723633	1052.8720703125	-207.7640686035156	42.08707427978516	1154.15283203125	-364.4083557128906	39.68487930297852	1024.895629882812	
